<svg width="24" height="24" viewBox="0 0 24 24" fill="none" xmlns="http://www.w3.org/2000/svg">
<g id="calendar">
<rect width="24" height="24" fill="white"/>
<path id="Union" fill-rule="evenodd" clip-rule="evenodd" d="M5 4.75C5 5.16421 5.33579 5.5 5.75 5.5H6.25C6.66421 5.5 7 5.16421 7 4.75C7 4.33579 7.33579 4 7.75 4H8.25C8.66421 4 9 4.33579 9 4.75C9 5.16421 9.33579 5.5 9.75 5.5H10.25C10.6642 5.5 11 5.16421 11 4.75C11 4.33579 11.3358 4 11.75 4H12.25C12.6642 4 13 4.33579 13 4.75C13 5.16421 13.3358 5.5 13.75 5.5H14.25C14.6642 5.5 15 5.16421 15 4.75C15 4.33579 15.3358 4 15.75 4H16.25C16.6642 4 17 4.33579 17 4.75C17 5.16421 17.3358 5.5 17.75 5.5H18.25C18.6642 5.5 19 5.16421 19 4.75C19 4.33579 19.3358 4 19.75 4H22V18C22 19.1046 21.1046 20 20 20H4C2.89543 20 2 19.1046 2 18V4H4.25C4.66421 4 5 4.33579 5 4.75ZM19 18C19.5523 18 20 17.5523 20 17V9C20 8.44772 19.5523 8 19 8H5C4.44772 8 4 8.44772 4 9V17C4 17.5523 4.44772 18 5 18H19ZM7 10C6.44772 10 6 10.4477 6 11V12C6 12.5523 6.44772 13 7 13H8C8.55228 13 9 12.5523 9 12V11C9 10.4477 8.55229 10 8 10H7Z" fill="black"/>
</g>
</svg>
