<svg width="24" height="24" viewBox="0 0 24 24" fill="none" xmlns="http://www.w3.org/2000/svg">
<g id="camera">
<path id="Union" fill-rule="evenodd" clip-rule="evenodd" d="M12.25 6C12.6642 6 13 6.33579 13 6.75C13 7.16421 13.3358 7.5 13.75 7.5H14.25C14.6642 7.5 15 7.16421 15 6.75C15 6.33579 15.3358 6 15.75 6H16.25C16.6642 6 17 6.33579 17 6.75C17 7.16421 17.3358 7.5 17.75 7.5H18.25C18.6642 7.5 19 7.16421 19 6.75C19 6.33579 19.3358 6 19.75 6H22V17C22 17.5523 21.5523 18 21 18H3C2.44772 18 2 17.5523 2 17V6H12.25ZM12 12C12 14.2091 10.2091 16 8 16C5.79086 16 4 14.2091 4 12C4 9.79086 5.79086 8 8 8C10.2091 8 12 9.79086 12 12ZM8 14C9.10457 14 10 13.1046 10 12C10 10.8954 9.10457 10 8 10C6.89543 10 6 10.8954 6 12C6 13.1046 6.89543 14 8 14Z" fill="black"/>
</g>
</svg>
