<svg width="24" height="24" viewBox="0 0 24 24" fill="none" xmlns="http://www.w3.org/2000/svg">
<g id="money">
<path id="Union" fill-rule="evenodd" clip-rule="evenodd" d="M11 3.5C11 2.67157 11.6716 2 12.5 2C13.3284 2 14 2.67157 14 3.5V4.5C14 4.55951 13.9965 4.61821 13.9898 4.67591C15.1434 4.89786 15.9433 5.29463 16.6707 5.65839C17.4117 6.0289 17.712 6.92992 17.3415 7.67088C16.971 8.41183 16.0699 8.71213 15.329 8.34161L15.306 8.3301C14.4013 7.87767 13.6462 7.5 11.9999 7.5C11.2224 7.5 10.5307 7.69892 10.082 7.99807C9.67773 8.26759 9.49996 8.58185 9.49996 9C9.49996 9.76054 9.68293 9.97546 9.81198 10.0787C10.0299 10.253 10.6 10.5 11.9999 10.5C13.6 10.5 15.0299 10.753 16.062 11.5787C17.1829 12.4754 17.4999 13.7605 17.4999 15C17.4999 16.5819 16.6777 17.7676 15.582 18.4981C15.0909 18.8254 14.5438 19.0656 13.9755 19.2286C13.9916 19.3166 14 19.4073 14 19.5V20.5C14 21.3284 13.3284 22 12.5 22C11.6716 22 11 21.3284 11 20.5V19.5C11 19.4864 11.0002 19.4728 11.0005 19.4593C9.28303 19.3135 8.24825 18.8012 7.32914 18.3416C6.58817 17.9712 6.28784 17.0701 6.65832 16.3292C7.02881 15.5882 7.92982 15.2879 8.67078 15.6584L8.69392 15.6699C9.59868 16.1224 10.3538 16.5 11.9999 16.5C12.7774 16.5 13.4691 16.3011 13.9179 16.0019C14.3222 15.7324 14.4999 15.4181 14.4999 15C14.4999 14.2395 14.317 14.0246 14.1879 13.9213C13.97 13.747 13.3999 13.5 11.9999 13.5C10.3998 13.5 8.96994 13.247 7.93787 12.4213C6.81695 11.5245 6.49996 10.2395 6.49996 9C6.49996 7.41815 7.32218 6.23241 8.41789 5.50193C9.18637 4.9896 10.0922 4.6909 11.0015 4.56728C11.0005 4.54497 11 4.52254 11 4.5V3.5Z" fill="black"/>
</g>
</svg>
