<svg width="24" height="24" viewBox="0 0 24 24" fill="none" xmlns="http://www.w3.org/2000/svg">
<g id="refresh">
<rect width="24" height="24" fill="white"/>
<path id="Union" fill-rule="evenodd" clip-rule="evenodd" d="M20.7282 11.361C20.7418 11.381 20.7547 11.4016 20.767 11.4229L22.5454 14.5032C22.8216 14.9815 22.6577 15.5931 22.1794 15.8693C21.7011 16.1454 21.0895 15.9815 20.8134 15.5032L20.2144 14.4657C20.0214 15.5344 19.6105 16.5573 19.0016 17.4685C18.1285 18.7752 16.8875 19.7937 15.4355 20.3951C13.9836 20.9966 12.3859 21.1539 10.8445 20.8473C9.30309 20.5407 7.88723 19.7839 6.77595 18.6726C6.38542 18.2821 6.38542 17.649 6.77594 17.2584C7.16647 16.8679 7.79963 16.8679 8.19016 17.2584C9.02173 18.09 10.0812 18.6563 11.2347 18.8857C12.3881 19.1152 13.5836 18.9974 14.6702 18.5474C15.7567 18.0973 16.6853 17.3352 17.3387 16.3574C17.8458 15.5984 18.1694 14.7359 18.2889 13.8378L17.2469 14.4394C16.7686 14.7156 16.157 14.5517 15.8809 14.0734C15.6047 13.5951 15.7686 12.9835 16.2469 12.7074L19.3272 10.9289C19.8055 10.6528 20.4171 10.8167 20.6933 11.295C20.7058 11.3167 20.7175 11.3387 20.7282 11.361ZM8.16457 10.9266C8.44071 11.4049 8.27684 12.0165 7.79854 12.2926L4.7182 14.071C4.23991 14.3472 3.62832 14.1833 3.35217 13.705C3.33961 13.6833 3.32796 13.6612 3.31721 13.639C3.30366 13.619 3.29073 13.5983 3.27846 13.5771L1.50002 10.4968C1.22388 10.0185 1.38776 9.40687 1.86605 9.13073C2.34434 8.85459 2.95593 9.01846 3.23207 9.49676L3.83109 10.5343C4.02404 9.46563 4.43495 8.44273 5.04383 7.53147C5.91696 6.22474 7.15797 5.20627 8.60993 4.60485C10.0619 4.00343 11.6596 3.84607 13.201 4.15267C14.7424 4.45927 16.1582 5.21607 17.2695 6.32735C17.66 6.71787 17.66 7.35104 17.2695 7.74156C16.879 8.13208 16.2458 8.13208 15.8553 7.74156C15.0237 6.90998 13.9642 6.34367 12.8108 6.11424C11.6574 5.88481 10.4618 6.00256 9.37529 6.45261C8.28879 6.90266 7.36013 7.66478 6.70677 8.64261C6.19962 9.40162 5.87601 10.2641 5.75657 11.1621L6.79854 10.5606C7.27684 10.2844 7.88843 10.4483 8.16457 10.9266Z" fill="black"/>
</g>
</svg>
