<svg width="24" height="24" viewBox="0 0 24 24" fill="none" xmlns="http://www.w3.org/2000/svg">
<g id="search">
<path id="Union" fill-rule="evenodd" clip-rule="evenodd" d="M15 10C15 12.7614 12.7614 15 10 15C7.23858 15 5 12.7614 5 10C5 7.23858 7.23858 5 10 5C12.7614 5 15 7.23858 15 10ZM14.5683 16.5683C13.2731 17.4708 11.6983 18 10 18C5.58172 18 2 14.4183 2 10C2 5.58172 5.58172 2 10 2C14.4183 2 18 5.58172 18 10C18 11.6357 17.5091 13.1568 16.6666 14.4239L21.4724 19.2298C22.0582 19.8156 22.0582 20.7653 21.4724 21.3511C20.8867 21.9369 19.9369 21.9369 19.3511 21.3511L14.5683 16.5683Z" fill="black"/>
</g>
</svg>
