<svg width="24" height="24" viewBox="0 0 24 24" fill="none" xmlns="http://www.w3.org/2000/svg">
<g id="trash">
<path id="Union" fill-rule="evenodd" clip-rule="evenodd" d="M13.7247 5H18C18.5523 5 19 5.44772 19 6C19 6.55228 18.5523 7 18 7H6C5.44772 7 5 6.55228 5 6C5 5.44772 5.44772 5 6 5H10.2753C10.4662 4.35261 10.7331 3.53382 11 3H13C13.2669 3.53382 13.5338 4.35261 13.7247 5ZM5.17724 9.15206C5.08405 8.5463 5.55273 8 6.16561 8H17.8344C18.4473 8 18.916 8.5463 18.8228 9.15206L17.1305 20.1521C17.0554 20.6399 16.6357 21 16.1421 21H7.85792C7.36435 21 6.9446 20.6399 6.86955 20.1521L5.17724 9.15206Z" fill="black"/>
</g>
</svg>
