<svg width="24" height="24" viewBox="0 0 24 24" fill="none" xmlns="http://www.w3.org/2000/svg">
<g id="x">
<path id="Rectangle 65" d="M4.92893 4.92894C5.31945 4.53841 5.95261 4.53841 6.34314 4.92894L19.0711 17.6569C19.4616 18.0474 19.4616 18.6806 19.0711 19.0711C18.6805 19.4616 18.0474 19.4616 17.6568 19.0711L4.92893 6.34315C4.5384 5.95263 4.5384 5.31946 4.92893 4.92894Z" fill="black"/>
<path id="Rectangle 66" d="M19.0711 4.92893C19.4616 5.31945 19.4616 5.95261 19.0711 6.34314L6.34314 19.0711C5.95261 19.4616 5.31945 19.4616 4.92892 19.0711C4.5384 18.6805 4.5384 18.0474 4.92893 17.6568L17.6568 4.92893C18.0474 4.5384 18.6805 4.5384 19.0711 4.92893Z" fill="black"/>
</g>
</svg>
